<?xml version="1.0" standalone="no"?>
<!DOCTYPE svg PUBLIC "-//W3C//DTD SVG 20010904//EN"
 "http://www.w3.org/TR/2001/REC-SVG-20010904/DTD/svg10.dtd">
<svg version="1.0" xmlns="http://www.w3.org/2000/svg"
 width="423.000000pt" height="416.000000pt" viewBox="0 0 423.000000 416.000000"
 preserveAspectRatio="xMidYMid meet">

<g transform="translate(0.000000,416.000000) scale(0.100000,-0.100000)"
fill="#000000" stroke="none">
<path d="M1709 3659 c-249 -254 -466 -464 -589 -572 -107 -94 -255 -228 -329
-297 -73 -69 -138 -124 -143 -122 -4 1 -12 -8 -17 -20 -9 -22 -139 -153 -289
-291 -135 -125 -188 -151 -212 -107 -12 23 -30 27 -30 6 0 -25 30 -46 64 -46
45 0 83 30 277 218 92 89 170 162 173 162 3 0 6 -62 6 -137 0 -76 7 -246 15
-378 12 -192 14 -366 9 -870 -7 -659 1 -874 31 -904 19 -19 30 -8 17 16 -6 11
-12 302 -16 748 -4 454 -13 840 -23 1020 -8 160 -13 346 -10 415 l5 125 108
104 c60 57 199 183 309 279 188 165 384 356 830 810 191 195 221 221 234 205
4 -4 37 -46 73 -93 151 -196 449 -523 615 -675 62 -56 208 -183 324 -281 117
-98 273 -237 348 -309 217 -209 389 -346 435 -345 17 1 16 4 -9 17 -86 46
-279 207 -465 388 -80 77 -228 210 -330 295 -388 326 -619 562 -811 827 -103
143 -165 213 -190 213 -9 0 -194 -181 -410 -401z"/>
<path d="M2285 3009 c-107 -16 -153 -37 -215 -99 -67 -67 -112 -153 -136 -258
l-16 -72 -47 72 c-100 151 -226 248 -323 248 -61 0 -99 -16 -165 -69 -139
-110 -208 -328 -169 -539 28 -158 54 -197 405 -607 322 -375 428 -513 614
-796 87 -132 157 -218 157 -192 0 6 -7 13 -15 16 -7 3 -22 23 -33 43 -19 36
-19 37 5 103 14 36 54 170 89 296 154 543 177 621 253 835 86 245 105 319 120
483 19 198 -17 336 -114 432 -57 58 -106 80 -219 100 -97 16 -103 17 -191 4z
m189 -24 c110 -19 166 -46 216 -102 152 -174 143 -442 -34 -930 -36 -99 -86
-257 -110 -350 -25 -92 -81 -274 -125 -404 -43 -130 -87 -268 -96 -306 l-17
-71 -56 82 c-216 316 -318 445 -666 846 -204 235 -266 317 -312 414 -114 241
-32 571 171 687 88 51 170 36 272 -49 55 -46 133 -143 168 -207 23 -43 26 -57
20 -107 -3 -35 -2 -59 5 -63 15 -9 26 30 34 115 15 167 48 260 120 338 51 55
106 87 176 101 30 6 64 13 75 15 40 8 74 6 159 -9z"/>
<path d="M3424 2535 c-8 -20 3 -184 16 -257 27 -139 33 -316 39 -1067 4 -515
10 -796 16 -798 13 -4 9 1225 -5 1517 -5 118 -17 269 -25 335 -8 65 -15 154
-15 197 0 73 -13 108 -26 73z"/>
</g>
</svg>
