<?xml version="1.0" standalone="no"?>
<!DOCTYPE svg PUBLIC "-//W3C//DTD SVG 20010904//EN"
 "http://www.w3.org/TR/2001/REC-SVG-20010904/DTD/svg10.dtd">
<svg version="1.0" xmlns="http://www.w3.org/2000/svg"
 width="431.000000pt" height="402.000000pt" viewBox="0 0 431.000000 402.000000"
 preserveAspectRatio="xMidYMid meet">

<g transform="translate(0.000000,402.000000) scale(0.100000,-0.100000)"
fill="#000000" stroke="none">
<path d="M2219 3902 c-32 -14 -193 -169 -261 -252 -93 -113 -197 -219 -348
-356 -69 -62 -197 -186 -285 -276 -88 -90 -187 -184 -220 -208 -33 -24 -80
-63 -105 -85 -25 -23 -79 -67 -120 -99 -41 -32 -81 -68 -89 -79 -27 -42 -87
-100 -182 -177 -53 -44 -136 -122 -184 -175 -92 -99 -120 -116 -159 -95 -66
35 -103 -25 -46 -74 36 -30 94 -35 139 -11 16 8 66 56 112 106 46 50 116 117
154 149 l70 57 1 -71 c1 -39 6 -357 11 -706 6 -349 8 -669 5 -710 -7 -100 16
-614 30 -668 14 -55 40 -70 68 -42 17 17 20 29 16 63 -12 95 -29 560 -23 648
3 52 1 357 -4 679 -12 756 -15 845 -23 859 -16 26 152 184 392 366 61 48 112
90 112 94 0 14 312 325 456 454 81 73 177 170 225 229 88 109 266 288 286 288
19 0 77 -62 106 -113 51 -93 174 -254 257 -338 47 -47 122 -127 167 -177 97
-109 195 -196 302 -272 43 -30 132 -105 197 -166 117 -110 190 -172 290 -250
145 -112 213 -169 246 -208 30 -35 158 -140 205 -169 15 -10 49 7 57 28 9 25
-4 43 -60 80 -30 20 -92 73 -137 118 -45 45 -154 138 -242 207 -88 69 -218
180 -290 248 -71 68 -166 147 -210 177 -78 51 -220 186 -435 411 -105 110
-222 262 -271 353 -41 75 -54 91 -106 126 -55 37 -81 46 -104 37z"/>
<path d="M2418 2850 c-99 -17 -173 -49 -241 -106 -83 -68 -111 -110 -133 -198
-16 -63 -18 -67 -27 -45 -48 118 -104 184 -196 227 -52 24 -58 25 -136 14
-130 -17 -203 -52 -278 -131 -51 -55 -71 -86 -103 -162 -38 -92 -39 -97 -37
-204 1 -89 6 -124 27 -184 30 -86 106 -216 185 -318 31 -39 81 -104 111 -144
30 -40 80 -100 111 -133 30 -34 71 -83 89 -111 36 -53 99 -129 192 -234 32
-35 74 -87 93 -115 19 -28 64 -91 100 -141 36 -49 79 -115 96 -145 100 -185
221 -282 259 -210 11 21 4 31 -63 83 l-37 28 29 52 c16 29 50 125 75 214 25
89 61 197 80 240 19 43 49 126 65 183 17 58 54 170 82 250 104 298 144 443
159 580 6 52 16 111 21 131 13 53 11 84 -12 200 -43 212 -140 331 -305 374
-62 16 -130 18 -206 5z m245 -110 c60 -31 82 -55 123 -129 41 -74 78 -224 71
-286 -28 -256 -69 -426 -182 -750 -30 -88 -67 -200 -81 -250 -14 -49 -41 -126
-61 -170 -19 -44 -57 -156 -84 -248 -26 -92 -51 -172 -54 -177 -12 -19 -24
-10 -51 38 -42 71 -211 305 -279 385 -141 165 -173 205 -205 252 -18 28 -59
77 -89 111 -31 33 -81 93 -111 133 -30 40 -80 105 -111 144 -73 94 -152 228
-174 295 -11 35 -18 90 -19 155 -1 92 2 110 29 176 37 92 104 170 174 200 74
32 191 48 230 31 46 -18 125 -110 140 -161 7 -24 28 -66 45 -94 24 -36 31 -56
25 -70 -24 -61 6 -109 48 -80 24 17 53 94 53 139 0 17 10 72 22 121 21 81 28
95 69 135 52 52 158 108 227 120 79 15 197 5 245 -20z"/>
<path d="M3507 2383 c-10 -9 -8 -47 2 -58 21 -23 29 -202 18 -429 -8 -174 -8
-250 1 -312 8 -52 14 -300 18 -681 3 -329 7 -613 10 -630 7 -45 37 -60 64 -33
19 19 20 31 19 403 0 210 -5 510 -11 667 -12 334 -14 480 -8 725 5 257 -17
355 -79 355 -15 0 -31 -3 -34 -7z"/>
</g>
</svg>
