<?xml version="1.0" standalone="no"?>
<!DOCTYPE svg PUBLIC "-//W3C//DTD SVG 20010904//EN"
 "http://www.w3.org/TR/2001/REC-SVG-20010904/DTD/svg10.dtd">
<svg version="1.0" xmlns="http://www.w3.org/2000/svg"
 width="500.000000pt" height="500.000000pt" viewBox="0 0 500.000000 500.000000"
 preserveAspectRatio="xMidYMid meet">

<g transform="translate(0.000000,500.000000) scale(0.100000,-0.100000)"
fill="#000000" stroke="none">
<path d="M1450 4520 c0 -33 4 -60 10 -60 6 0 10 9 10 20 0 13 7 20 18 20 24 0
42 19 42 46 0 23 -17 34 -56 34 -23 0 -24 -3 -24 -60z m58 23 c-5 -26 -38 -29
-38 -4 0 15 6 21 21 21 14 0 19 -5 17 -17z"/>
<path d="M1620 4520 l0 -60 40 0 c22 0 40 5 40 10 0 6 -13 10 -30 10 -20 0
-30 5 -30 15 0 9 9 15 24 15 14 0 28 5 31 10 4 6 -7 10 -24 10 -21 0 -31 5
-31 15 0 10 10 15 30 15 17 0 30 5 30 10 0 6 -18 10 -40 10 l-40 0 0 -60z"/>
<path d="M1800 4520 c0 -33 4 -60 10 -60 6 0 10 9 10 20 0 26 15 25 34 -2 18
-25 33 -18 18 8 -7 12 -6 25 1 41 13 30 -6 53 -44 53 -29 0 -29 -1 -29 -60z
m55 20 c0 -8 -8 -16 -17 -18 -13 -2 -18 3 -18 18 0 15 5 20 18 18 9 -2 17 -10
17 -18z"/>
<path d="M1980 4520 c0 -33 4 -60 10 -60 6 0 10 11 10 25 0 21 5 25 30 25 25
0 30 -4 30 -25 0 -14 5 -25 10 -25 6 0 10 27 10 60 0 33 -4 60 -10 60 -5 0
-10 -11 -10 -25 0 -21 -5 -25 -30 -25 -25 0 -30 4 -30 25 0 14 -4 25 -10 25
-6 0 -10 -27 -10 -60z"/>
<path d="M2180 4520 l0 -60 40 0 c22 0 40 5 40 10 0 6 -13 10 -30 10 -20 0
-30 5 -30 15 0 9 9 15 25 15 14 0 25 5 25 10 0 6 -11 10 -25 10 -16 0 -25 6
-25 15 0 10 10 15 30 15 17 0 30 5 30 10 0 6 -18 10 -40 10 l-40 0 0 -60z"/>
<path d="M2350 4520 l0 -60 40 0 c22 0 40 5 40 10 0 6 -13 10 -30 10 -20 0
-30 5 -30 15 0 9 9 15 24 15 14 0 28 5 31 10 4 6 -7 10 -24 10 -21 0 -31 5
-31 15 0 10 10 15 30 15 17 0 30 5 30 10 0 6 -18 10 -40 10 l-40 0 0 -60z"/>
<path d="M2530 4522 c0 -35 4 -62 10 -62 6 0 10 17 10 37 l0 37 40 -39 40 -39
0 62 c0 35 -4 62 -10 62 -5 0 -10 -17 -10 -37 l0 -37 -40 39 -40 39 0 -62z"/>
<path d="M2730 4571 c0 -5 11 -33 24 -62 l24 -54 26 59 c30 67 29 66 16 66 -5
0 -17 -17 -26 -37 l-16 -38 -15 38 c-14 33 -33 50 -33 28z"/>
<path d="M2944 4572 c-51 -34 -28 -111 34 -112 27 0 62 33 62 60 0 42 -62 75
-96 52z m70 -34 c15 -24 -3 -52 -37 -56 -33 -4 -53 28 -37 59 14 25 58 23 74
-3z"/>
<path d="M3130 4520 c0 -33 4 -60 10 -60 6 0 10 27 10 60 0 33 -4 60 -10 60
-6 0 -10 -27 -10 -60z"/>
<path d="M3250 4520 c0 -33 4 -60 10 -60 6 0 10 15 10 33 l1 32 21 -28 21 -28
18 28 19 28 0 -32 c0 -18 5 -33 10 -33 6 0 10 25 10 55 0 30 -2 55 -5 55 -2 0
-15 -16 -29 -36 l-24 -36 -27 41 c-15 23 -29 41 -31 41 -2 0 -4 -27 -4 -60z"/>
<path d="M3496 4545 c-32 -72 -36 -85 -27 -85 5 0 11 7 15 15 7 20 43 19 54
-1 5 -9 14 -15 19 -13 6 2 -2 31 -17 64 l-27 60 -17 -40z m20 -32 c-10 -10
-19 5 -10 18 6 11 8 11 12 0 2 -7 1 -15 -2 -18z"/>
<path d="M2189 3789 c-249 -254 -466 -464 -589 -572 -107 -94 -255 -228 -329
-297 -73 -69 -138 -124 -143 -122 -4 1 -12 -8 -17 -20 -9 -22 -139 -153 -289
-291 -135 -125 -188 -151 -212 -107 -12 23 -30 27 -30 6 0 -25 30 -46 64 -46
45 0 83 30 277 218 92 89 170 162 173 162 3 0 6 -62 6 -137 0 -76 7 -246 15
-378 12 -192 14 -366 9 -870 -7 -659 1 -874 31 -904 19 -19 30 -8 17 16 -6 11
-12 302 -16 748 -4 454 -13 840 -23 1020 -8 160 -13 346 -10 415 l5 125 108
104 c60 57 199 183 309 279 188 165 384 356 830 810 191 195 221 221 234 205
4 -4 37 -46 73 -93 151 -196 449 -523 615 -675 62 -56 208 -183 324 -281 117
-98 273 -237 348 -309 217 -209 389 -346 435 -345 17 1 16 4 -9 17 -86 46
-279 207 -465 388 -80 77 -228 210 -330 295 -388 326 -619 562 -811 827 -103
143 -165 213 -190 213 -9 0 -194 -181 -410 -401z"/>
<path d="M2765 3139 c-107 -16 -153 -37 -215 -99 -67 -67 -112 -153 -136 -258
l-16 -72 -47 72 c-100 151 -226 248 -323 248 -61 0 -99 -16 -165 -69 -139
-110 -208 -328 -169 -539 28 -158 54 -197 405 -607 322 -375 428 -513 614
-796 87 -132 157 -218 157 -192 0 6 -7 13 -15 16 -7 3 -22 23 -33 43 -19 36
-19 37 5 103 14 36 54 170 89 296 154 543 177 621 253 835 86 245 105 319 120
483 19 198 -17 336 -114 432 -57 58 -106 80 -219 100 -97 16 -103 17 -191 4z
m189 -24 c110 -19 166 -46 216 -102 152 -174 143 -442 -34 -930 -36 -99 -86
-257 -110 -350 -25 -92 -81 -274 -125 -404 -43 -130 -87 -268 -96 -306 l-17
-71 -56 82 c-216 316 -318 445 -666 846 -204 235 -266 317 -312 414 -114 241
-32 571 171 687 88 51 170 36 272 -49 55 -46 133 -143 168 -207 23 -43 26 -57
20 -107 -3 -35 -2 -59 5 -63 15 -9 26 30 34 115 15 167 48 260 120 338 51 55
106 87 176 101 30 6 64 13 75 15 40 8 74 6 159 -9z"/>
<path d="M3904 2665 c-8 -20 3 -184 16 -257 27 -139 33 -316 39 -1067 4 -515
10 -796 16 -798 13 -4 9 1225 -5 1517 -5 118 -17 269 -25 335 -8 65 -15 154
-15 197 0 73 -13 108 -26 73z"/>
</g>
</svg>
